# xmcd
#
# Track frame offsets: 
#        150
#        12657
#        25590
#        40497
#        52492
#        67115
#        81200
#        96260
#        112457
#        125792
#        138585
#        153322
#        167840
#        183177
#        203552
#        218285
#        234285
#        248307
#        267077
#        282030
#
# Disc length: 3927 seconds
#
# Revision: 3
# Processed by: cddbd v1.5.2PL0 Copyright (c) Steve Scherf et al.
# Submitted via: ExactAudioCopyFreeDBPlugin 1.0
#
DISCID=1e0f5514
DTITLE=Glen Campbell - The Collection (1962-1989) [Disc 2]
DYEAR=1997
DGENRE=Country
TTITLE0=Bonaparte's Retreat
TTITLE1=I Knew Jesus (Before He Was A Star)
TTITLE2=Houston (I'm Comin' To See You)
TTITLE3=Manhattan Kansas
TTITLE4=Rhinestone Cowboy
TTITLE5=Country Boy (You Got Your Feet In LA)
TTITLE6=Don't Pull Your Love and Then You Can Tell Me Goodbye
TTITLE7=See You On Sunday
TTITLE8=Southern Nights
TTITLE9=Sunflower
TTITLE10=Can You Fool
TTITLE11=Any Which Way You Can
TTITLE12=I'm Gonna Love You
TTITLE13=Bloodline
TTITLE14=Faithless Love
TTITLE15=A Lady Like You
TTITLE16=The Hand That Rocks The Cradle (with Steve Wariner)
TTITLE17=Still Within The Sound Of My Voice
TTITLE18=I Have You
TTITLE19=She's Gone, Gone, Gone
EXTD=YEAR: 1997
EXTT0=
EXTT1=
EXTT2=
EXTT3=
EXTT4=
EXTT5=
EXTT6=
EXTT7=
EXTT8=
EXTT9=
EXTT10=
EXTT11=
EXTT12=
EXTT13=
EXTT14=
EXTT15=
EXTT16=With Steve Wariner
EXTT17=
EXTT18=
EXTT19=
PLAYORDER=
